<svg id="Layer_1" xmlns="http://www.w3.org/2000/svg" viewBox="0 0 24 24"><style></style><linearGradient id="SVGID_1_" gradientUnits="userSpaceOnUse" x1="12" y1="24" x2="12"><stop offset="0" stop-color="#f6d610"/><stop offset="1" stop-color="#e68c06"/></linearGradient><path fill="url(#SVGID_1_)" d="M0 0h24v24H0z"/><path d="M6.757 14.71a.749.749 0 0 1-.685-1.055c.324-.729 2.053-4.364 4.179-4.364 1.36 0 1.955 1.333 2.433 2.404.317.71.676 1.516 1.063 1.516.823 0 2.161-2.019 2.812-3.476a.75.75 0 0 1 1.369.612c-.324.729-2.054 4.364-4.181 4.364-1.36 0-1.955-1.333-2.433-2.404-.317-.71-.676-1.516-1.063-1.516-.822 0-2.16 2.018-2.81 3.476a.75.75 0 0 1-.684.443z" fill="#fff"/></svg>
