<?xml version="1.0" encoding="utf-8"?>
<!-- Generator: Adobe Illustrator 23.0.3, SVG Export Plug-In . SVG Version: 6.00 Build 0)  -->
<svg version="1.1" id="Layer_1" xmlns="http://www.w3.org/2000/svg" xmlns:xlink="http://www.w3.org/1999/xlink" x="0px" y="0px"
	 viewBox="0 0 24 24" enable-background="new 0 0 24 24" xml:space="preserve">
<path d="M16.484,3.897c-0.553,0-1,0.447-1,1v2.844L12,11.225L8.516,7.741V4.897c0-0.553-0.447-1-1-1s-1,0.447-1,1v3.258
	c0,0.266,0.105,0.52,0.293,0.707l4.19,4.19v3.636l-0.79-0.79c-0.391-0.391-1.023-0.391-1.414,0s-0.391,1.023,0,1.414l2.497,2.497
	c0.195,0.195,0.451,0.293,0.707,0.293s0.512-0.098,0.707-0.293l2.498-2.497c0.391-0.391,0.391-1.023,0-1.414s-1.023-0.391-1.414,0
	L13,16.689v-3.636l4.191-4.19c0.188-0.188,0.293-0.441,0.293-0.707V4.897C17.484,4.345,17.037,3.897,16.484,3.897z"/>
</svg>
