<?xml version="1.0" encoding="utf-8"?>
<!-- Generator: Adobe Illustrator 21.1.0, SVG Export Plug-In . SVG Version: 6.00 Build 0)  -->
<svg version="1.1" id="Layer_1" xmlns="http://www.w3.org/2000/svg" xmlns:xlink="http://www.w3.org/1999/xlink" x="0px" y="0px"
	 viewBox="0 0 24 24" style="enable-background:new 0 0 24 24;" xml:space="preserve">
<style type="text/css">
	.st0{fill-rule:evenodd;clip-rule:evenodd;fill:#EEEDED;}
	.st1{fill:#E83E3F;}
	.st2{fill-rule:evenodd;clip-rule:evenodd;fill:url(#SVGID_1_);}
	.st3{fill:#FFFFFF;}
	.st4{fill:#DAD9DC;}
	.st5{fill:#B9B7BA;}
	.st6{fill-rule:evenodd;clip-rule:evenodd;fill:url(#SVGID_2_);}
	.st7{fill-rule:evenodd;clip-rule:evenodd;fill:url(#SVGID_3_);}
	.st8{fill-rule:evenodd;clip-rule:evenodd;fill:url(#SVGID_4_);}
	.st9{fill-rule:evenodd;clip-rule:evenodd;fill:url(#SVGID_5_);}
	.st10{fill-rule:evenodd;clip-rule:evenodd;fill:url(#SVGID_6_);}
	.st11{fill-rule:evenodd;clip-rule:evenodd;fill:#626160;}
	.st12{fill-rule:evenodd;clip-rule:evenodd;fill:#CACACA;}
	.st13{fill-rule:evenodd;clip-rule:evenodd;fill:url(#SVGID_7_);}
	.st14{fill-rule:evenodd;clip-rule:evenodd;fill:url(#SVGID_8_);}
	.st15{fill:#FACEC2;}
</style>
<g>
	<linearGradient id="SVGID_1_" gradientUnits="userSpaceOnUse" x1="12" y1="24" x2="12" y2="-9.094947e-13">
		<stop  offset="0" style="stop-color:#0E1214"/>
		<stop  offset="1" style="stop-color:#40464A"/>
	</linearGradient>
	<path class="st2" d="M0,0h24v24H0V0z"/>
	<linearGradient id="SVGID_2_" gradientUnits="userSpaceOnUse" x1="5" y1="14.25" x2="14" y2="14.25">
		<stop  offset="0" style="stop-color:#484848"/>
		<stop  offset="1" style="stop-color:#797979"/>
	</linearGradient>
	<path class="st6" d="M14,13.547C14,13.547,14,13.547,14,13.547l0-0.171h-0.003c-0.09-2.406-2.069-4.329-4.497-4.329
		s-4.407,1.923-4.497,4.329H5v1.587h0c0.006,2.48,2.018,4.489,4.5,4.489c2.482,0,4.494-2.009,4.5-4.489h0L14,13.547
		C14,13.547,14,13.547,14,13.547z"/>
	<g>
		<linearGradient id="SVGID_3_" gradientUnits="userSpaceOnUse" x1="14" y1="13.5471" x2="14" y2="13.5471">
			<stop  offset="0" style="stop-color:#525252"/>
			<stop  offset="1" style="stop-color:#545454"/>
		</linearGradient>
		<polygon class="st7" points="14,13.547 14,13.547 14,13.547 		"/>
		<linearGradient id="SVGID_4_" gradientUnits="userSpaceOnUse" x1="13.4101" y1="15.3643" x2="14" y2="15.3643">
			<stop  offset="0" style="stop-color:#525252"/>
			<stop  offset="1" style="stop-color:#545454"/>
		</linearGradient>
		<path class="st8" d="M13.41,15.776v1.405c0.373-0.654,0.588-1.411,0.59-2.218h0v-1.416C14,14.358,13.785,15.119,13.41,15.776z"/>
		<linearGradient id="SVGID_5_" gradientUnits="userSpaceOnUse" x1="13.9968" y1="13.4617" x2="14" y2="13.4617">
			<stop  offset="0" style="stop-color:#525252"/>
			<stop  offset="1" style="stop-color:#545454"/>
		</linearGradient>
		<path class="st9" d="M14,13.376h-0.003C13.999,13.433,14,13.49,14,13.547V13.376z"/>
	</g>
	<g>
		<path class="st11" d="M9.5,9.047c-0.493,0-0.967,0.079-1.411,0.226C7.714,9.93,7.5,10.69,7.5,11.5c0,2.485,2.015,4.5,4.5,4.5
			c0.493,0,0.967-0.079,1.411-0.226C13.786,15.118,14,14.357,14,13.547C14,11.062,11.985,9.047,9.5,9.047z"/>
	</g>
	<g>
		<path class="st12" d="M13.411,15.774C13.411,15.774,13.411,15.774,13.411,15.774L13.411,15.774z"/>
		<path class="st12" d="M12,16c-2.485,0-4.5-2.015-4.5-4.5c0-0.81,0.214-1.57,0.589-2.227C6.295,9.865,5,11.555,5,13.547
			c0,2.485,2.015,4.5,4.5,4.5c1.675,0,3.136-0.915,3.911-2.273C12.967,15.921,12.493,16,12,16z"/>
		<path class="st12" d="M8.089,9.273C8.089,9.273,8.089,9.273,8.089,9.273L8.089,9.273z"/>
	</g>
	<linearGradient id="SVGID_6_" gradientUnits="userSpaceOnUse" x1="10" y1="9.0471" x2="19" y2="9.0471">
		<stop  offset="0" style="stop-color:#726522"/>
		<stop  offset="1" style="stop-color:#AD9928"/>
	</linearGradient>
	<path class="st10" d="M18.997,8.174c-0.09-2.406-2.069-4.329-4.497-4.329s-4.407,1.923-4.497,4.329H10v1.587h0.001
		c0.006,2.48,2.017,4.489,4.499,4.489s4.493-2.009,4.499-4.489H19V8.174H18.997z"/>
	<linearGradient id="SVGID_7_" gradientUnits="userSpaceOnUse" x1="14.5" y1="12.8441" x2="14.5" y2="3.8441">
		<stop  offset="0" style="stop-color:#FDEB69"/>
		<stop  offset="1" style="stop-color:#FFF18C"/>
	</linearGradient>
	<path class="st13" d="M14.5,3.844c2.485,0,4.5,2.015,4.5,4.5s-2.015,4.5-4.5,4.5s-4.5-2.015-4.5-4.5S12.015,3.844,14.5,3.844z"/>
</g>
</svg>
