<svg xmlns="http://www.w3.org/2000/svg" viewBox="0 0 24 24"><linearGradient id="a" gradientUnits="userSpaceOnUse" x1="12" y1="24" x2="12"><stop offset="0" stop-color="#10161c"/><stop offset="1" stop-color="#30485b"/></linearGradient><path d="M0 0h24v24H0V0z" fill-rule="evenodd" clip-rule="evenodd" fill="url(#a)"/><linearGradient id="b" gradientUnits="userSpaceOnUse" x1="11.921" y1="19.036" x2="11.921" y2="4.126"><stop offset="0" stop-color="#b6b4b8"/><stop offset="1" stop-color="#fff"/></linearGradient><path d="M13.848 4.807l-1.87-.66a.18.18 0 0 0-.117 0l-1.868.66a.18.18 0 0 1-.117 0l-1.928-.681V19.036l1.928-.681a.18.18 0 0 1 .117 0l1.87.66a.18.18 0 0 0 .117 0l1.868-.66a.18.18 0 0 1 .117 0l1.927.681V4.126l-1.928.681a.165.165 0 0 1-.116 0z" fill="url(#b)"/><path d="M19.869 13.072a1.987 1.987 0 1 1-.001 3.975 1.987 1.987 0 0 1 .001-3.975z" fill-rule="evenodd" clip-rule="evenodd" fill="#e3e2e2"/><path d="M14.902 17.046a1.987 1.987 0 1 1-.001 3.975 1.987 1.987 0 0 1 .001-3.975z" fill-rule="evenodd" clip-rule="evenodd" fill="#ffe34a"/><path d="M13.855 17.046H8.994a.053.053 0 0 1-.053-.053v-.887c0-.029.024-.053.053-.053h4.861c.029 0 .053.024.053.053v.887a.053.053 0 0 1-.053.053z" fill-rule="evenodd" clip-rule="evenodd" fill="#a7a5aa"/><path d="M12.861 15.059H8.994a.053.053 0 0 1-.053-.053v-.887c0-.029.024-.053.053-.053h3.867c.029 0 .053.024.053.053v.887a.052.052 0 0 1-.053.053z" fill-rule="evenodd" clip-rule="evenodd" fill="#adaaaf"/><path d="M13.855 13.072H8.994a.053.053 0 0 1-.053-.053v-.887c0-.029.024-.053.053-.053h4.861c.029 0 .053.024.053.053v.887a.053.053 0 0 1-.053.053z" fill-rule="evenodd" clip-rule="evenodd" fill="#b9b6ba"/><path d="M14.848 11.085H8.994a.053.053 0 0 1-.053-.053v-.887c0-.029.024-.053.053-.053h5.854c.029 0 .053.024.053.053v.887a.052.052 0 0 1-.053.053z" fill-rule="evenodd" clip-rule="evenodd" fill="#c1bfc3"/><path d="M13.855 9.098H8.994a.053.053 0 0 1-.053-.053v-.887c0-.029.024-.053.053-.053h4.861c.029 0 .053.024.053.053v.887c0 .03-.024.053-.053.053z" fill-rule="evenodd" clip-rule="evenodd" fill="#c7c5c9"/><g><path d="M14.848 7.111H8.994a.053.053 0 0 1-.053-.053v-.887c0-.029.024-.053.053-.053h5.854c.029 0 .053.024.053.053v.887a.052.052 0 0 1-.053.053z" fill-rule="evenodd" clip-rule="evenodd" fill="#d3d2d6"/></g></svg>