<svg id="Layer_1" xmlns="http://www.w3.org/2000/svg" viewBox="0 0 24 24"><style>.st12{fill-rule:evenodd;clip-rule:evenodd;fill:#cacaca}</style><linearGradient id="SVGID_1_" gradientUnits="userSpaceOnUse" x1="12" y1="24" x2="12"><stop offset="0" stop-color="#0e1214"/><stop offset="1" stop-color="#40464a"/></linearGradient><path d="M0 0h24v24H0V0z" fill-rule="evenodd" clip-rule="evenodd" fill="url(#SVGID_1_)"/><linearGradient id="SVGID_2_" gradientUnits="userSpaceOnUse" x1="5" y1="14.25" x2="14" y2="14.25"><stop offset="0" stop-color="#484848"/><stop offset="1" stop-color="#797979"/></linearGradient><path d="M14 13.547v-.171h-.003a4.5 4.5 0 0 0-8.994 0H5v1.587a4.5 4.5 0 0 0 9 0v-1.416z" fill-rule="evenodd" clip-rule="evenodd" fill="url(#SVGID_2_)"/><linearGradient id="SVGID_3_" gradientUnits="userSpaceOnUse" x1="14" y1="13.547" x2="14" y2="13.547"><stop offset="0" stop-color="#525252"/><stop offset="1" stop-color="#545454"/></linearGradient><path fill-rule="evenodd" clip-rule="evenodd" fill="url(#SVGID_3_)" d="M14 13.547z"/><linearGradient id="SVGID_4_" gradientUnits="userSpaceOnUse" x1="13.41" y1="15.364" x2="14" y2="15.364"><stop offset="0" stop-color="#525252"/><stop offset="1" stop-color="#545454"/></linearGradient><path d="M13.41 15.776v1.405a4.487 4.487 0 0 0 .59-2.218v-1.416c0 .811-.215 1.572-.59 2.229z" fill-rule="evenodd" clip-rule="evenodd" fill="url(#SVGID_4_)"/><linearGradient id="SVGID_5_" gradientUnits="userSpaceOnUse" x1="13.997" y1="13.462" x2="14" y2="13.462"><stop offset="0" stop-color="#525252"/><stop offset="1" stop-color="#545454"/></linearGradient><path d="M14 13.376h-.003l.003.171v-.171z" fill-rule="evenodd" clip-rule="evenodd" fill="url(#SVGID_5_)"/><path d="M9.5 9.047a4.48 4.48 0 0 0-1.411.226 4.5 4.5 0 0 0 5.322 6.501A4.5 4.5 0 0 0 9.5 9.047z" fill-rule="evenodd" clip-rule="evenodd" fill="#626160"/><g><path class="st12" d="M13.411 15.774zM12 16a4.5 4.5 0 0 1-3.911-6.727 4.5 4.5 0 1 0 5.322 6.501A4.48 4.48 0 0 1 12 16zM8.089 9.273z"/></g><linearGradient id="SVGID_6_" gradientUnits="userSpaceOnUse" x1="10" y1="9.047" x2="19" y2="9.047"><stop offset="0" stop-color="#726522"/><stop offset="1" stop-color="#ad9928"/></linearGradient><path d="M18.997 8.174a4.5 4.5 0 0 0-8.994 0H10v1.587h.001a4.5 4.5 0 0 0 8.998 0H19V8.174h-.003z" fill-rule="evenodd" clip-rule="evenodd" fill="url(#SVGID_6_)"/><linearGradient id="SVGID_7_" gradientUnits="userSpaceOnUse" x1="14.5" y1="12.844" x2="14.5" y2="3.844"><stop offset="0" stop-color="#fdeb69"/><stop offset="1" stop-color="#fff18c"/></linearGradient><path d="M14.5 3.844a4.5 4.5 0 1 1 0 9 4.5 4.5 0 0 1 0-9z" fill-rule="evenodd" clip-rule="evenodd" fill="url(#SVGID_7_)"/></svg>