<svg id="Layer_1" xmlns="http://www.w3.org/2000/svg" viewBox="0 0 24 24"><style>.st1{fill-rule:evenodd;clip-rule:evenodd;fill:#fff}</style><linearGradient id="SVGID_1_" gradientUnits="userSpaceOnUse" x1="12" y1="24" x2="12"><stop offset="0" stop-color="#58388f"/><stop offset="1" stop-color="#90549d"/></linearGradient><path d="M0 0h24v24H0V0z" fill-rule="evenodd" clip-rule="evenodd" fill="url(#SVGID_1_)"/><ellipse class="st1" cx="10.352" cy="15.867" rx="1.047" ry="1.067"/><path class="st1" d="M15.895 8.562l-6.666-.005-.069-.169a1.592 1.592 0 0 0-1.477-.989H6.638a.75.75 0 0 0 0 1.5h1.045c.039 0 .075.024.09.061l1.812 4.399a.751.751 0 0 0 .801.456l5.615-.818a.751.751 0 0 0 .642-.742V9.312a.748.748 0 0 0-.748-.75zm-.751 3.043l-4.395.64-.902-2.188 5.297.004v1.544z"/><ellipse class="st1" cx="15.495" cy="15.867" rx="1.047" ry="1.067"/></svg>