<svg id="Layer_1" xmlns="http://www.w3.org/2000/svg" viewBox="0 0 24 24"><style>.st3{fill:#fff}</style><linearGradient id="SVGID_1_" gradientUnits="userSpaceOnUse" x1="12" y1="24" x2="12"><stop offset="0" stop-color="#6f58a2"/><stop offset="1" stop-color="#4a3c90"/></linearGradient><path fill="url(#SVGID_1_)" d="M0 0h24v24H0z"/><path class="st3" d="M12 17.93c-.001 0-.001 0 0 0-.502 0-.973-.195-1.327-.551l-4.054-4.053a1.878 1.878 0 0 1 0-2.652l4.055-4.054a1.877 1.877 0 0 1 2.651 0l4.055 4.055c.354.354.55.825.55 1.326s-.195.972-.55 1.326l-4.054 4.054A1.869 1.869 0 0 1 12 17.93zm0-10.359a.375.375 0 0 0-.266.109L7.68 11.734a.374.374 0 0 0 0 .532l4.055 4.054a.376.376 0 0 0 .531 0l4.054-4.054a.374.374 0 0 0 0-.532L12.266 7.68A.375.375 0 0 0 12 7.571z"/><path class="st3" d="M14.323 12.089l-2.234 2.234a.125.125 0 0 1-.177 0l-2.234-2.234a.125.125 0 0 1 0-.177l2.234-2.234a.125.125 0 0 1 .177 0l2.234 2.234a.125.125 0 0 1 0 .177z"/></svg>
