<svg id="Layer_1" xmlns="http://www.w3.org/2000/svg" viewBox="0 0 24 24"><style>.st1{fill:#fff}</style><linearGradient id="SVGID_1_" gradientUnits="userSpaceOnUse" x1="12" y1=".028" x2="12" y2="23.988"><stop offset="0" stop-color="#508874"/><stop offset="1" stop-color="#305246"/></linearGradient><path fill="url(#SVGID_1_)" d="M0 0h24v24H0z"/><path class="st1" d="M17.21 11.25H6.79a.75.75 0 0 0 0 1.5h10.42a.75.75 0 0 0 0-1.5zM8.874 8.061h6.252a.75.75 0 0 0 0-1.5H8.874a.75.75 0 0 0 0 1.5zM15.126 15.94H8.874a.75.75 0 0 0 0 1.5h6.252a.75.75 0 0 0 0-1.5z"/></svg>