<svg xmlns="http://www.w3.org/2000/svg" viewBox="0 0 24 24"><linearGradient id="a" gradientUnits="userSpaceOnUse" x1="12" y1="24" x2="12"><stop offset="0" stop-color="#05a8a0"/><stop offset="1" stop-color="#007a82"/></linearGradient><path d="M0 0h24v24H0V0z" fill-rule="evenodd" clip-rule="evenodd" fill="url(#a)"/><path d="M17.256 12.75h-2.342a.75.75 0 0 1 0-1.5h2.342a.75.75 0 0 1 0 1.5zm-8.171 0H6.743a.75.75 0 0 1 0-1.5h2.342a.75.75 0 0 1 0 1.5zM12 9.835a.75.75 0 0 1-.75-.75V6.744a.75.75 0 0 1 1.5 0v2.341a.75.75 0 0 1-.75.75zm0 8.171a.75.75 0 0 1-.75-.75v-2.341a.75.75 0 0 1 1.5 0v2.341a.75.75 0 0 1-.75.75z" fill="#fff"/></svg>