<?xml version="1.0" encoding="utf-8"?>
<!-- Generator: Adobe Illustrator 21.1.0, SVG Export Plug-In . SVG Version: 6.00 Build 0)  -->
<svg version="1.1" id="Layer_1" xmlns="http://www.w3.org/2000/svg" xmlns:xlink="http://www.w3.org/1999/xlink" x="0px" y="0px"
	 viewBox="0 0 24 24" style="enable-background:new 0 0 24 24;" xml:space="preserve">
<style type="text/css">
	.st0{fill-rule:evenodd;clip-rule:evenodd;fill:url(#SVGID_1_);}
	.st1{fill-rule:evenodd;clip-rule:evenodd;fill:#FFFFFF;}
</style>
<linearGradient id="SVGID_1_" gradientUnits="userSpaceOnUse" x1="12" y1="24" x2="12" y2="-2.728484e-12">
	<stop  offset="0" style="stop-color:#58388F"/>
	<stop  offset="1" style="stop-color:#90549D"/>
</linearGradient>
<path class="st0" d="M0,0h24v24H0V0z"/>
<g>
	<ellipse class="st1" cx="10.352" cy="15.867" rx="1.047" ry="1.067"/>
	<path class="st1" d="M15.895,8.562L9.229,8.557L9.16,8.388C8.912,7.787,8.333,7.399,7.683,7.399H6.638
		c-0.414,0-0.75,0.336-0.75,0.75s0.336,0.75,0.75,0.75h1.045c0.039,0,0.075,0.024,0.09,0.061l1.812,4.399
		c0.117,0.283,0.393,0.464,0.693,0.464c0.035,0,0.072-0.003,0.108-0.008l5.615-0.818c0.368-0.054,0.642-0.37,0.642-0.742V9.312
		C16.644,8.898,16.309,8.562,15.895,8.562z M15.144,11.605l-4.395,0.64l-0.902-2.188l5.297,0.004V11.605z"/>
	<ellipse class="st1" cx="15.495" cy="15.867" rx="1.047" ry="1.067"/>
</g>
</svg>
