<?xml version="1.0" encoding="utf-8"?>
<!-- Generator: Adobe Illustrator 23.0.3, SVG Export Plug-In . SVG Version: 6.00 Build 0)  -->
<svg version="1.1" id="Layer_1" xmlns="http://www.w3.org/2000/svg" xmlns:xlink="http://www.w3.org/1999/xlink" x="0px" y="0px"
	 viewBox="0 0 24 24" enable-background="new 0 0 24 24" xml:space="preserve">
<g>
	<path d="M17.761,6.897h-3.032l0.361-0.361c0.391-0.391,0.391-1.023,0-1.414s-1.023-0.391-1.414,0L11.608,7.19
		c-0.391,0.391-0.391,1.023,0,1.414l2.068,2.068c0.195,0.195,0.451,0.293,0.707,0.293s0.512-0.098,0.707-0.293
		c0.391-0.391,0.391-1.023,0-1.414l-0.361-0.361h2.032v6.205h-1.685c-0.553,0-1,0.448-1,1s0.447,1,1,1h2.685c0.553,0,1-0.448,1-1
		V7.897C18.761,7.345,18.314,6.897,17.761,6.897z"/>
	<path d="M10.324,13.327c-0.391-0.391-1.023-0.391-1.414,0s-0.391,1.023,0,1.414l0.361,0.361H7.239V8.897h1.685c0.553,0,1-0.448,1-1
		s-0.447-1-1-1H6.239c-0.553,0-1,0.448-1,1v8.205c0,0.552,0.447,1,1,1h3.032L8.91,17.464c-0.391,0.391-0.391,1.023,0,1.414
		c0.195,0.195,0.451,0.293,0.707,0.293s0.512-0.098,0.707-0.293l2.068-2.068c0.391-0.391,0.391-1.023,0-1.414L10.324,13.327z"/>
</g>
</svg>
